<?xml version="1.0" encoding="UTF-8"?>
<svg width="1000px" height="1000px" viewBox="0 0 1000 1000" version="1.1" xmlns="http://www.w3.org/2000/svg" xmlns:xlink="http://www.w3.org/1999/xlink">
    <!-- Generator: Sketch 52.3 (67297) - http://www.bohemiancoding.com/sketch -->
    <title>blue_solid_circle-white_bg</title>
    <desc>Created with Sketch.</desc>
    <defs>
        <polygon id="path-1" points="0.0002 0 1000 0 1000 999.9997 0.0002 999.9997"></polygon>
    </defs>
    <g id="blue_solid_circle-white_bg" stroke="none" stroke-width="1" fill="none" fill-rule="evenodd">
        <g id="Group-8">
            <g id="Group-3">
                <mask id="mask-2" fill="white">
                    <use xlink:href="#path-1"></use>
                </mask>
                <g id="Clip-2"></g>
                <path d="M1000.0002,499.9997 C1000.0002,776.1427 776.1432,999.9997 500.0002,999.9997 C223.8572,999.9997 0.0002,776.1427 0.0002,499.9997 C0.0002,223.8577 223.8572,-0.0003 500.0002,-0.0003 C776.1432,-0.0003 1000.0002,223.8577 1000.0002,499.9997" id="Fill-1" fill="#FFFFFF" mask="url(#mask-2)"></path>
            </g>
            <path d="M219.8127,687.6052 C185.2337,634.9112 165.0397,571.9702 165.0397,504.3712 C165.0397,319.6692 315.3007,169.4092 499.9987,169.4092 C684.6997,169.4092 834.9597,319.6692 834.9597,504.3712 C834.9597,571.9702 814.7657,634.9112 780.1867,687.6052 L873.9567,687.6052 C901.1797,632.2722 916.5367,570.0902 916.5367,504.3712 C916.5367,274.6902 729.6797,87.8342 499.9987,87.8342 C270.3207,87.8342 83.4637,274.6902 83.4637,504.3712 C83.4637,570.0902 98.8197,632.2722 126.0437,687.6052 L219.8127,687.6052 Z" id="Fill-4" fill="#0FA0EA"></path>
            <path d="M476.7659,621.1725 C444.7069,621.1725 427.1299,607.4685 427.1299,584.9175 C427.1299,537.9185 484.5369,526.5665 559.3099,526.5665 C559.3099,575.7615 526.3939,621.1725 476.7659,621.1725 M505.6619,306.4775 C444.6539,306.4775 374.4469,335.2265 336.3429,365.5965 L371.1499,438.8435 C401.7119,410.8925 451.1189,386.9805 495.6899,386.9805 C538.0419,386.9805 561.4249,401.1445 561.4249,429.6605 C561.4249,448.8535 545.8759,459.6685 516.6439,462.3585 C406.7389,472.4685 321.3339,506.7795 321.3339,591.1345 C321.3339,658.0225 369.5569,698.4665 448.8879,698.4665 C501.9579,698.4665 543.6939,668.9625 566.1599,630.0385 L566.1599,687.5795 L665.1049,687.5795 L665.1049,446.4745 C665.1049,346.9215 595.8829,306.4775 505.6619,306.4775" id="Fill-6" fill="#060809"></path>
        </g>
    </g>
</svg>